<svg width="16" height="16" viewBox="0 0 16 16" fill="none" xmlns="http://www.w3.org/2000/svg">
<path d="M14.1667 6.66667V5.33334C14.1667 5.29798 14.1654 5.26416 14.1654 5.23178L9.88151 10.0527C9.69156 10.2664 9.51686 10.4641 9.35352 10.6055C9.17929 10.7562 8.96643 10.8897 8.6875 10.9134C8.40854 10.9371 8.17633 10.8412 7.97917 10.722C7.79434 10.6102 7.58915 10.4449 7.36589 10.2663L5.95313 9.13608C5.72116 8.9505 5.5835 8.84175 5.47461 8.7754C5.42502 8.74518 5.39651 8.73353 5.38282 8.72917L5.3737 8.72722H5.37305C5.37215 8.72747 5.36948 8.72831 5.36459 8.73048C5.35146 8.73632 5.3246 8.75096 5.27865 8.78647C5.17778 8.86442 5.05307 8.98731 4.8431 9.19727L1.68685 12.3535C1.49159 12.5488 1.17508 12.5488 0.979821 12.3535C0.784558 12.1583 0.784558 11.8418 0.979821 11.6465L4.13607 8.49024C4.32733 8.29898 4.50396 8.12102 4.66732 7.9948C4.84193 7.85991 5.0514 7.74331 5.31836 7.72852C5.58531 7.71375 5.80636 7.80644 5.99479 7.92123C6.17107 8.02863 6.36629 8.18587 6.57748 8.35483L7.99024 9.48569C8.23497 9.68147 8.38131 9.79674 8.49675 9.86654C8.54936 9.89834 8.57937 9.91035 8.59375 9.91472C8.59933 9.91641 8.60221 9.91659 8.60287 9.91668C8.6029 9.91667 8.6059 9.91582 8.61198 9.91277C8.62552 9.90595 8.65286 9.88908 8.69922 9.84897C8.80123 9.76071 8.92595 9.62287 9.13412 9.38868L13.4779 4.50066C13.4327 4.50054 13.3846 4.50001 13.3333 4.50001L12 4.50001C11.7239 4.50001 11.5 4.27615 11.5 4.00001C11.5 3.72387 11.7239 3.50001 12 3.50001L13.3333 3.50001C13.6335 3.50001 13.9089 3.49873 14.1315 3.52865C14.3685 3.56052 14.6189 3.63579 14.8249 3.8418C15.0309 4.04782 15.1062 4.29818 15.138 4.53516C15.168 4.75777 15.1667 5.03321 15.1667 5.33334V6.66667C15.1667 6.94282 14.9428 7.16667 14.6667 7.16667C14.3905 7.16667 14.1667 6.94282 14.1667 6.66667ZM7.33334 4.83334C7.60948 4.83334 7.83334 5.0572 7.83334 5.33334C7.83334 5.60948 7.60948 5.83334 7.33334 5.83334L3.33334 5.83334C3.05719 5.83334 2.83334 5.60948 2.83334 5.33334C2.83334 5.0572 3.05719 4.83334 3.33334 4.83334L7.33334 4.83334Z" fill="#03B65C"/>
</svg>
