<svg width="16" height="16" viewBox="0 0 16 16" fill="none" xmlns="http://www.w3.org/2000/svg">
<path d="M8.61081 8.74076V7.62944C8.61081 7.09894 8.6102 6.73836 8.58217 6.46277C8.55497 6.19574 8.50622 6.06413 8.44545 5.97319C8.37385 5.86607 8.28175 5.77393 8.17462 5.70235C8.09508 5.64926 7.98412 5.605 7.77943 5.5767C7.56658 5.54729 7.28861 5.53939 6.88686 5.53764C6.7725 5.53714 6.65014 5.53699 6.51837 5.53699C5.98787 5.53699 5.62729 5.5376 5.3517 5.56563C5.08467 5.59283 4.95306 5.64159 4.86212 5.70235C4.75495 5.77396 4.66289 5.86602 4.59128 5.97319C4.53052 6.06413 4.48176 6.19574 4.45456 6.46277C4.42653 6.73836 4.42592 7.09894 4.42592 7.62944V12.0741C4.42592 12.6046 4.42653 12.9652 4.45456 13.2408C4.48175 13.5078 4.53053 13.6394 4.59128 13.7303C4.66289 13.8375 4.75495 13.9296 4.86212 14.0012C4.95306 14.0619 5.08466 14.1107 5.3517 14.1379C5.62729 14.1659 5.98787 14.1665 6.51837 14.1665C7.04894 14.1665 7.40942 14.1659 7.68503 14.1379C7.95208 14.1107 8.08364 14.0619 8.17462 14.0012C8.28176 13.9296 8.37385 13.8375 8.44545 13.7303C8.51333 13.6288 8.56565 13.4781 8.59063 13.1477C8.61143 12.8723 8.85173 12.6659 9.12709 12.6867C9.40225 12.7076 9.60866 12.9474 9.58803 13.2225C9.55826 13.6166 9.48696 13.972 9.27748 14.2857C9.13295 14.502 8.9469 14.688 8.73061 14.8326C8.44793 15.0214 8.13227 15.0975 7.78594 15.1327C7.44801 15.167 7.02801 15.1665 6.51837 15.1665C6.00867 15.1665 5.58873 15.1671 5.25079 15.1327C4.90452 15.0975 4.58942 15.0214 4.30678 14.8326C4.09042 14.688 3.90447 14.502 3.7599 14.2857C3.57111 14.0031 3.495 13.6879 3.45977 13.3417C3.4254 13.0037 3.42592 12.5838 3.42592 12.0741V7.62944C3.42592 7.11974 3.4254 6.6998 3.45977 6.36186C3.495 6.0156 3.5711 5.70048 3.7599 5.41785C3.90447 5.20149 4.09042 5.01554 4.30678 4.87097C4.58941 4.68216 4.90453 4.60607 5.25079 4.57084C5.58873 4.53646 6.00867 4.53699 6.51837 4.53699C6.64952 4.53699 6.77391 4.53713 6.89076 4.53764C7.28796 4.53937 7.6292 4.54671 7.9168 4.58647C8.21232 4.62734 8.48382 4.70607 8.73061 4.87097C8.94692 5.01553 9.13294 5.20153 9.27748 5.41785C9.46621 5.70045 9.54239 6.01565 9.57761 6.36186C9.61199 6.6998 9.61081 7.11974 9.61081 7.62944V8.74076C9.61078 9.01687 9.38693 9.24076 9.11081 9.24076C8.83483 9.24061 8.61085 9.01678 8.61081 8.74076Z" fill="#8B5CF6"/>
<path d="M7.38917 7.25911V8.37044C7.38917 8.90094 7.38978 9.26152 7.41782 9.53711C7.44501 9.80414 7.49377 9.93575 7.55453 10.0267C7.62613 10.1338 7.71824 10.2259 7.82537 10.2975C7.90491 10.3506 8.01586 10.3949 8.22055 10.4232C8.43341 10.4526 8.71137 10.4605 9.11313 10.4622C9.22748 10.4627 9.34985 10.4629 9.48162 10.4629C10.0121 10.4629 10.3727 10.4623 10.6483 10.4342C10.9153 10.4071 11.0469 10.3583 11.1379 10.2975C11.245 10.2259 11.3371 10.1339 11.4087 10.0267C11.4695 9.93575 11.5182 9.80414 11.5454 9.53711C11.5735 9.26152 11.5741 8.90094 11.5741 8.37044V3.92578C11.5741 3.39524 11.5735 3.03472 11.5454 2.75911C11.5182 2.49209 11.4695 2.36049 11.4087 2.26953C11.3371 2.16237 11.245 2.0703 11.1379 1.9987C11.0469 1.93793 10.9153 1.88917 10.6483 1.86198C10.3727 1.83394 10.0121 1.83333 9.48162 1.83333C8.95104 1.83333 8.59057 1.83394 8.31495 1.86198C8.0479 1.88915 7.91634 1.93796 7.82537 1.9987C7.71822 2.07029 7.62614 2.16239 7.55453 2.26953C7.48665 2.37112 7.43433 2.52177 7.40935 2.85221C7.38855 3.12757 7.14825 3.33395 6.87289 3.31315C6.59774 3.29225 6.39132 3.05251 6.41196 2.77734C6.44173 2.38327 6.51302 2.02789 6.7225 1.71419C6.86704 1.49788 7.05308 1.31187 7.26938 1.16732C7.55206 0.978436 7.86771 0.902419 8.21404 0.867188C8.55197 0.832832 8.97198 0.833333 9.48162 0.833333C9.99132 0.833333 10.4113 0.83281 10.7492 0.867188C11.0955 0.902416 11.4106 0.978495 11.6932 1.16732C11.9096 1.31188 12.0955 1.49783 12.2401 1.71419C12.4289 1.99683 12.505 2.31195 12.5402 2.6582C12.5746 2.99615 12.5741 3.41607 12.5741 3.92578V8.37044C12.5741 8.88014 12.5746 9.30008 12.5402 9.63802C12.505 9.98428 12.4289 10.2994 12.2401 10.582C12.0955 10.7984 11.9096 10.9843 11.6932 11.1289C11.4106 11.3177 11.0955 11.3938 10.7492 11.429C10.4113 11.4634 9.99132 11.4629 9.48162 11.4629C9.35046 11.4629 9.22608 11.4627 9.10922 11.4622C8.71203 11.4605 8.37078 11.4532 8.08318 11.4134C7.78766 11.3725 7.51617 11.2938 7.26938 11.1289C7.05307 10.9844 6.86704 10.7984 6.7225 10.582C6.53377 10.2994 6.45759 9.98422 6.42237 9.63802C6.388 9.30008 6.38917 8.88014 6.38917 8.37044V7.25911C6.38921 6.98301 6.61305 6.75911 6.88917 6.75911C7.16516 6.75927 7.38913 6.9831 7.38917 7.25911Z" fill="#8B5CF6"/>
</svg>
