<svg width="16" height="16" viewBox="0 0 16 16" fill="none" xmlns="http://www.w3.org/2000/svg">
<path d="M8.61083 8.74076V7.62944C8.61083 7.09894 8.61022 6.73836 8.58218 6.46277C8.55499 6.19574 8.50623 6.06413 8.44547 5.97319C8.37387 5.86607 8.28176 5.77393 8.17463 5.70235C8.09509 5.64926 7.98414 5.605 7.77945 5.5767C7.56659 5.54729 7.28863 5.53939 6.88687 5.53764C6.77252 5.53714 6.65015 5.53699 6.51838 5.53699C5.98788 5.53699 5.62731 5.5376 5.35172 5.56563C5.08469 5.59283 4.95308 5.64159 4.86213 5.70235C4.75496 5.77396 4.66291 5.86602 4.5913 5.97319C4.53054 6.06413 4.48177 6.19574 4.45458 6.46277C4.42654 6.73836 4.42593 7.09894 4.42593 7.62944V12.0741C4.42593 12.6046 4.42654 12.9652 4.45458 13.2408C4.48177 13.5078 4.53055 13.6394 4.5913 13.7303C4.6629 13.8375 4.75497 13.9296 4.86213 14.0012C4.95308 14.0619 5.08467 14.1107 5.35172 14.1379C5.62731 14.1659 5.98788 14.1665 6.51838 14.1665C7.04896 14.1665 7.40943 14.1659 7.68505 14.1379C7.9521 14.1107 8.08366 14.0619 8.17463 14.0012C8.28178 13.9296 8.37386 13.8375 8.44547 13.7303C8.51335 13.6288 8.56567 13.4781 8.59065 13.1477C8.61145 12.8723 8.85175 12.6659 9.12711 12.6867C9.40226 12.7076 9.60868 12.9474 9.58804 13.2225C9.55827 13.6166 9.48698 13.972 9.2775 14.2857C9.13296 14.502 8.94692 14.688 8.73062 14.8326C8.44794 15.0214 8.13229 15.0975 7.78596 15.1327C7.44803 15.167 7.02802 15.1665 6.51838 15.1665C6.00868 15.1665 5.58874 15.1671 5.2508 15.1327C4.90454 15.0975 4.58944 15.0214 4.30679 14.8326C4.09044 14.688 3.90448 14.502 3.75992 14.2857C3.57113 14.0031 3.49501 13.6879 3.45979 13.3417C3.42541 13.0037 3.42593 12.5838 3.42593 12.0741V7.62944C3.42593 7.11974 3.42541 6.6998 3.45979 6.36186C3.49502 6.0156 3.57111 5.70048 3.75992 5.41785C3.90448 5.20149 4.09044 5.01554 4.30679 4.87097C4.58943 4.68216 4.90455 4.60607 5.2508 4.57084C5.58874 4.53646 6.00868 4.53699 6.51838 4.53699C6.64954 4.53699 6.77392 4.53713 6.89078 4.53764C7.28797 4.53937 7.62922 4.54671 7.91682 4.58647C8.21234 4.62734 8.48383 4.70607 8.73062 4.87097C8.94693 5.01553 9.13296 5.20153 9.2775 5.41785C9.46623 5.70045 9.54241 6.01565 9.57763 6.36186C9.612 6.6998 9.61083 7.11974 9.61083 7.62944V8.74076C9.61079 9.01687 9.38695 9.24076 9.11083 9.24076C8.83484 9.24061 8.61087 9.01678 8.61083 8.74076Z" fill="#06B6D4"/>
<path d="M7.38917 7.25911V8.37044C7.38917 8.90094 7.38978 9.26152 7.41782 9.53711C7.44501 9.80414 7.49377 9.93575 7.55453 10.0267C7.62613 10.1338 7.71824 10.2259 7.82537 10.2975C7.90491 10.3506 8.01586 10.3949 8.22055 10.4232C8.43341 10.4526 8.71137 10.4605 9.11313 10.4622C9.22748 10.4627 9.34985 10.4629 9.48162 10.4629C10.0121 10.4629 10.3727 10.4623 10.6483 10.4342C10.9153 10.4071 11.0469 10.3583 11.1379 10.2975C11.245 10.2259 11.3371 10.1339 11.4087 10.0267C11.4695 9.93575 11.5182 9.80414 11.5454 9.53711C11.5735 9.26152 11.5741 8.90094 11.5741 8.37044V3.92578C11.5741 3.39524 11.5735 3.03472 11.5454 2.75911C11.5182 2.49209 11.4695 2.36049 11.4087 2.26953C11.3371 2.16237 11.245 2.0703 11.1379 1.9987C11.0469 1.93793 10.9153 1.88917 10.6483 1.86198C10.3727 1.83394 10.0121 1.83333 9.48162 1.83333C8.95104 1.83333 8.59057 1.83394 8.31495 1.86198C8.0479 1.88915 7.91634 1.93796 7.82537 1.9987C7.71822 2.07029 7.62614 2.16239 7.55453 2.26953C7.48665 2.37112 7.43433 2.52177 7.40935 2.85221C7.38855 3.12757 7.14825 3.33395 6.87289 3.31315C6.59774 3.29225 6.39132 3.05251 6.41196 2.77734C6.44173 2.38327 6.51302 2.02789 6.7225 1.71419C6.86704 1.49788 7.05308 1.31187 7.26938 1.16732C7.55206 0.978436 7.86771 0.902419 8.21404 0.867188C8.55197 0.832832 8.97198 0.833333 9.48162 0.833333C9.99132 0.833333 10.4113 0.83281 10.7492 0.867188C11.0955 0.902416 11.4106 0.978495 11.6932 1.16732C11.9096 1.31188 12.0955 1.49783 12.2401 1.71419C12.4289 1.99683 12.505 2.31195 12.5402 2.6582C12.5746 2.99615 12.5741 3.41607 12.5741 3.92578V8.37044C12.5741 8.88014 12.5746 9.30008 12.5402 9.63802C12.505 9.98428 12.4289 10.2994 12.2401 10.582C12.0955 10.7984 11.9096 10.9843 11.6932 11.1289C11.4106 11.3177 11.0955 11.3938 10.7492 11.429C10.4113 11.4634 9.99132 11.4629 9.48162 11.4629C9.35046 11.4629 9.22608 11.4627 9.10922 11.4622C8.71203 11.4605 8.37078 11.4532 8.08318 11.4134C7.78766 11.3725 7.51617 11.2938 7.26938 11.1289C7.05307 10.9844 6.86704 10.7984 6.7225 10.582C6.53377 10.2994 6.45759 9.98422 6.42237 9.63802C6.388 9.30008 6.38917 8.88014 6.38917 8.37044V7.25911C6.38921 6.98301 6.61305 6.75911 6.88917 6.75911C7.16516 6.75927 7.38913 6.9831 7.38917 7.25911Z" fill="#06B6D4"/>
</svg>
