<svg width="16" height="16" viewBox="0 0 16 16" fill="none" xmlns="http://www.w3.org/2000/svg">
<path d="M11.6667 9.50004C12.0179 9.50004 12.4865 9.5941 12.9492 9.73767C13.4195 9.88357 13.9275 10.0942 14.3607 10.3536C14.7751 10.6017 15.2016 10.9424 15.3945 11.3816C15.4979 11.617 15.5358 11.8852 15.4603 12.1635C15.3866 12.4349 15.2182 12.6693 14.9941 12.8692C14.3983 13.4007 13.6744 13.8333 12.7376 13.8334H12.4108C12.1347 13.8334 11.9108 13.6095 11.9108 13.3334C11.9108 13.0572 12.1347 12.8334 12.4108 12.8334H12.7376C13.3338 12.8333 13.8292 12.5675 14.3281 12.1224C14.4517 12.0122 14.4854 11.9357 14.4948 11.9011C14.5023 11.8734 14.504 11.8398 14.4792 11.7832C14.4153 11.6381 14.2153 11.4322 13.847 11.2116C13.4973 11.0022 13.066 10.8209 12.653 10.6927C12.2323 10.5622 11.8734 10.5 11.6667 10.5C11.3905 10.5 11.1667 10.2762 11.1667 10C11.1667 9.7239 11.3905 9.50004 11.6667 9.50004ZM12.5 5.33337C12.5 4.54814 11.7856 3.83348 10.8034 3.83337C10.6749 3.83337 10.5498 3.84615 10.4303 3.86983C10.1596 3.92336 9.89687 3.74729 9.8431 3.4766C9.78937 3.20574 9.96546 2.94244 10.2363 2.88871C10.4196 2.85238 10.6095 2.83337 10.8034 2.83337C12.2475 2.83348 13.5 3.9096 13.5 5.33337C13.5 6.75715 12.2475 7.83327 10.8034 7.83337C10.6095 7.83337 10.4196 7.81437 10.2363 7.77804C9.96546 7.72431 9.78937 7.46101 9.8431 7.19015C9.89687 6.91946 10.1596 6.74339 10.4303 6.79692C10.5498 6.8206 10.6749 6.83337 10.8034 6.83337C11.7856 6.83327 12.5 6.11861 12.5 5.33337Z" fill="#007BFF"/>
<path d="M2.7513 10.3002C4.74194 9.23339 7.25805 9.23339 9.24869 10.3002C9.58754 10.4817 10.3903 10.846 10.9043 11.2989C11.1631 11.5269 11.4402 11.8524 11.4915 12.2748C11.5477 12.7373 11.3184 13.1446 10.9297 13.4779C10.2664 14.0466 9.47141 14.5 8.44921 14.5H3.55078C2.52858 14.5 1.73359 14.0466 1.07031 13.4779C0.681622 13.1446 0.452281 12.7373 0.50846 12.2748C0.559806 11.8524 0.836897 11.5269 1.0957 11.2989C1.60974 10.846 2.41246 10.4817 2.7513 10.3002ZM8.77604 11.1817C7.08051 10.2731 4.91949 10.2731 3.22395 11.1817C2.77677 11.4213 2.15553 11.6974 1.75651 12.0489C1.55908 12.2228 1.50738 12.3405 1.50065 12.3952C1.49888 12.4097 1.48251 12.514 1.72135 12.7188C2.28435 13.2015 2.85589 13.5 3.55078 13.5H8.44921C9.1441 13.5 9.71565 13.2015 10.2786 12.7188C10.5175 12.514 10.5011 12.4097 10.4993 12.3952C10.4926 12.3405 10.4409 12.2228 10.2435 12.0489C9.84446 11.6974 9.22322 11.4213 8.77604 11.1817ZM8.16666 5.00004C8.16666 3.80342 7.19661 2.83337 6 2.83337C4.80338 2.83337 3.83333 3.80342 3.83333 5.00004C3.83333 6.19666 4.80338 7.16671 6 7.16671C7.19661 7.16671 8.16666 6.19666 8.16666 5.00004ZM9.16666 5.00004C9.16666 6.74894 7.7489 8.16671 6 8.16671C4.25109 8.16671 2.83333 6.74894 2.83333 5.00004C2.83333 3.25114 4.25109 1.83337 6 1.83337C7.7489 1.83337 9.16666 3.25114 9.16666 5.00004Z" fill="#007BFF"/>
</svg>
