<svg width="24" height="24" viewBox="0 0 24 24" fill="none" xmlns="http://www.w3.org/2000/svg">
<path d="M4.75 17.9999C4.75 18.4142 4.41421 18.7499 4 18.7499C3.58579 18.7499 3.25 18.4142 3.25 17.9999L3.25 5.99994C3.25 5.58573 3.58579 5.24994 4 5.24994C4.41421 5.24994 4.75 5.58573 4.75 5.99994L4.75 17.9999Z" fill="#CCCCCC"/>
<path d="M20 11.2504C20.4142 11.2504 20.75 11.5862 20.75 12.0004C20.75 12.4146 20.4142 12.7504 20 12.7504H8C7.58579 12.7504 7.25 12.4146 7.25 12.0004C7.25 11.5862 7.58579 11.2504 8 11.2504H20Z" fill="#CCCCCC"/>
<path d="M11.5557 7.39651C11.8892 7.15098 12.3579 7.22221 12.6035 7.55569C12.8491 7.8892 12.7778 8.35891 12.4443 8.60452L12.4424 8.60549L12.4033 8.63479C12.3752 8.65573 12.3336 8.68729 12.2803 8.72756C12.1736 8.80814 12.0198 8.92487 11.8359 9.06839C11.4674 9.35603 10.9788 9.74846 10.4922 10.1709C10.0017 10.5968 9.53022 11.039 9.1875 11.4268C9.01537 11.6216 8.89126 11.7857 8.81445 11.9131C8.79251 11.9495 8.77971 11.979 8.76953 12C8.77971 12.0211 8.79251 12.0505 8.81445 12.0869C8.89126 12.2144 9.01537 12.3785 9.1875 12.5733C9.53022 12.9611 10.0017 13.4033 10.4922 13.8291C10.9788 14.2516 11.4674 14.644 11.8359 14.9317C12.0198 15.0752 12.1736 15.1919 12.2803 15.2725C12.3336 15.3128 12.3752 15.3443 12.4033 15.3653L12.4424 15.3946L12.4443 15.3955C12.7778 15.6411 12.8491 16.1108 12.6035 16.4444C12.3579 16.7779 11.8892 16.8491 11.5557 16.6035H11.5537C11.5532 16.6031 11.5527 16.6023 11.5518 16.6016C11.5496 16.6 11.5461 16.5968 11.542 16.5938C11.5339 16.5878 11.5219 16.5796 11.5068 16.5684C11.4763 16.5457 11.432 16.5121 11.376 16.4698C11.264 16.3851 11.1049 16.2632 10.9141 16.1143C10.5328 15.8167 10.0209 15.4074 9.50781 14.9619C8.99848 14.5197 8.46972 14.0273 8.0625 13.5664C7.85969 13.3369 7.6712 13.0967 7.5293 12.8614C7.39983 12.6465 7.25 12.3404 7.25 12C7.25001 11.6596 7.39983 11.3535 7.5293 11.1387C7.6712 10.9033 7.85968 10.6632 8.0625 10.4336C8.46972 9.97273 8.99847 9.48035 9.50781 9.03811C10.0207 8.59277 10.5319 8.1833 10.9131 7.88577C11.1041 7.73673 11.2639 7.61494 11.376 7.5303C11.432 7.48796 11.4763 7.4544 11.5068 7.43167C11.5219 7.42047 11.5339 7.41228 11.542 7.40628C11.5461 7.40326 11.5496 7.40009 11.5518 7.39846C11.5527 7.39779 11.5532 7.39691 11.5537 7.39651H11.5557Z" fill="#CCCCCC"/>
</svg>
