<svg width="20" height="20" viewBox="0 0 20 20" fill="none" xmlns="http://www.w3.org/2000/svg">
    <path d="M14.4108 4.4108C14.7363 4.08536 15.2638 4.08536 15.5892 4.4108C15.9146 4.73623 15.9146 5.26374 15.5892 5.58918L11.1784 9.99999L15.5892 14.4108L15.6462 14.4743C15.9131 14.8016 15.8943 15.2841 15.5892 15.5892C15.2841 15.8943 14.8016 15.9131 14.4743 15.6461L14.4108 15.5892L10 11.1784L5.58921 15.5892C5.26377 15.9146 4.73626 15.9146 4.41083 15.5892C4.08539 15.2637 4.08539 14.7362 4.41083 14.4108L8.82163 9.99999L4.41083 5.58918C4.08539 5.26374 4.08539 4.73623 4.41083 4.4108C4.73626 4.08536 5.26377 4.08536 5.58921 4.4108L10 8.8216L14.4108 4.4108Z" fill="#E53935"/>
</svg>
