<svg width="20" height="20" viewBox="0 0 20 20" fill="none" xmlns="http://www.w3.org/2000/svg">
<path d="M9.375 5V9.375H8.33333C7.56533 9.375 6.92608 9.37381 6.4209 9.44173C5.89789 9.51209 5.42585 9.66692 5.04639 10.0464C4.66692 10.4259 4.51209 10.8979 4.44173 11.4209C4.37381 11.9261 4.375 14.232 4.375 15C4.375 15.3452 4.65482 15.625 5 15.625C5.34518 15.625 5.625 15.3452 5.625 15C5.625 14.1967 5.62622 11.9903 5.68034 11.5877C5.73204 11.2032 5.82159 11.0388 5.93018 10.9302C6.03877 10.8216 6.20324 10.732 6.58773 10.6803C6.99026 10.6262 7.52999 10.625 8.33333 10.625H11.6667C12.47 10.625 13.0097 10.6262 13.4123 10.6803C13.7968 10.732 13.9612 10.8216 14.0698 10.9302C14.1784 11.0388 14.268 11.2032 14.3197 11.5877C14.3738 11.9903 14.375 14.1967 14.375 15C14.375 15.3452 14.6548 15.625 15 15.625C15.3452 15.625 15.625 15.3452 15.625 15C15.625 14.232 15.6262 11.9261 15.5583 11.4209C15.4879 10.8979 15.3331 10.4259 14.9536 10.0464C14.5741 9.66692 14.1021 9.51209 13.5791 9.44173C13.0739 9.37381 12.4347 9.375 11.6667 9.375H10.625V5C10.625 4.65482 10.3452 4.375 10 4.375C9.65482 4.375 9.375 4.65482 9.375 5Z" fill="#131313"/>
<path d="M6.04183 16.6666C6.04183 17.2419 5.57546 17.7083 5.00016 17.7083C4.42487 17.7083 3.9585 17.2419 3.9585 16.6666C3.9585 16.0913 4.42487 15.625 5.00016 15.625C5.57546 15.625 6.04183 16.0913 6.04183 16.6666ZM7.29183 16.6666C7.29183 15.401 6.26582 14.375 5.00016 14.375C3.73451 14.375 2.7085 15.401 2.7085 16.6666C2.7085 17.9323 3.73451 18.9583 5.00016 18.9583C6.26582 18.9583 7.29183 17.9323 7.29183 16.6666Z" fill="#131313"/>
<path d="M11.0418 3.33333C11.0418 3.90863 10.5755 4.375 10.0002 4.375C9.42487 4.375 8.9585 3.90863 8.9585 3.33333C8.9585 2.75804 9.42487 2.29167 10.0002 2.29167C10.5755 2.29167 11.0418 2.75804 11.0418 3.33333ZM12.2918 3.33333C12.2918 2.06768 11.2658 1.04167 10.0002 1.04167C8.73451 1.04167 7.7085 2.06768 7.7085 3.33333C7.7085 4.59899 8.73451 5.625 10.0002 5.625C11.2658 5.625 12.2918 4.59899 12.2918 3.33333Z" fill="#131313"/>
<path d="M16.0418 16.6666C16.0418 17.2419 15.5755 17.7083 15.0002 17.7083C14.4249 17.7083 13.9585 17.2419 13.9585 16.6666C13.9585 16.0913 14.4249 15.625 15.0002 15.625C15.5755 15.625 16.0418 16.0913 16.0418 16.6666ZM17.2918 16.6666C17.2918 15.401 16.2658 14.375 15.0002 14.375C13.7345 14.375 12.7085 15.401 12.7085 16.6666C12.7085 17.9323 13.7345 18.9583 15.0002 18.9583C16.2658 18.9583 17.2918 17.9323 17.2918 16.6666Z" fill="#131313"/>
</svg>
