<svg width="20" height="20" viewBox="0 0 20 20" fill="none" xmlns="http://www.w3.org/2000/svg">
<path d="M8.56856 3.125C7.31803 3.125 6.44009 3.12608 5.77641 3.21126C5.12799 3.29452 4.77905 3.44837 4.53211 3.68408C4.28922 3.91604 4.13322 4.23778 4.04789 4.84375C3.95985 5.46916 3.95838 6.29848 3.95838 7.49023L4.03569 11.875L13.2325 11.875C14.175 11.875 14.8258 11.8742 15.293 11.8197C15.7729 11.7636 15.8874 11.6655 15.9213 11.6243C15.9759 11.5577 16.0141 11.4826 16.036 11.4046C16.0449 11.3727 16.0676 11.2465 15.8301 10.852C15.5978 10.4661 15.2111 9.97122 14.6444 9.24967C14.4208 8.96494 14.2246 8.71673 14.0837 8.49609C13.9365 8.26563 13.8173 8.01765 13.781 7.72217C13.7628 7.57457 13.7628 7.42542 13.781 7.27783C13.8173 6.98235 13.9365 6.73437 14.0837 6.50391C14.2246 6.28327 14.4208 6.03506 14.6444 5.75032C15.2111 5.02878 15.5978 4.53388 15.8301 4.14795C16.0676 3.75347 16.0449 3.62731 16.036 3.59538C16.0141 3.51741 15.9759 3.44225 15.9213 3.37565C15.8874 3.33445 15.7729 3.23641 15.293 3.18034C14.8258 3.12576 14.175 3.125 13.2325 3.125L8.56856 3.125ZM13.2325 1.875C14.1421 1.875 14.8807 1.8742 15.4379 1.93929C15.9824 2.0029 16.528 2.14467 16.8872 2.58219C17.0499 2.78038 17.1702 3.00988 17.2396 3.25683C17.3959 3.81278 17.1773 4.33444 16.9011 4.79329C16.6189 5.26186 16.1722 5.82895 15.6275 6.52262C15.3889 6.82645 15.2381 7.01959 15.1376 7.17692C15.0433 7.32448 15.026 7.39173 15.0212 7.43083C15.0156 7.47678 15.0156 7.52322 15.0212 7.56917C15.026 7.60826 15.0433 7.67552 15.1376 7.82308C15.2381 7.98041 15.3889 8.17354 15.6275 8.47737C16.1722 9.17104 16.6189 9.73813 16.9011 10.2067C17.1773 10.6656 17.3959 11.1872 17.2396 11.7432C17.1702 11.9901 17.0499 12.2196 16.8872 12.4178C16.528 12.8553 15.9824 12.9971 15.4379 13.0607C14.8807 13.1258 14.1421 13.125 13.2325 13.125L3.42208 13.125C3.08133 13.125 2.80329 12.852 2.79708 12.5114L2.70838 7.51139L2.70838 7.5C2.70838 6.33997 2.7067 5.40405 2.8101 4.66959C2.91646 3.91413 3.14486 3.28018 3.66866 2.77995C4.18838 2.28375 4.83998 2.0716 5.6169 1.97184C6.37876 1.87402 7.3516 1.875 8.56856 1.875L13.2325 1.875Z" fill="#E53935"/>
<path d="M2.70837 6.66667C2.70837 6.32149 2.9882 6.04167 3.33337 6.04167C3.67855 6.04167 3.95837 6.32149 3.95837 6.66667L3.95837 17.5C3.95837 17.8452 3.67855 18.125 3.33337 18.125C2.9882 18.125 2.70837 17.8452 2.70837 17.5L2.70837 6.66667Z" fill="#E53935"/>
</svg>
