<svg width="20" height="20" viewBox="0 0 20 20" fill="none" xmlns="http://www.w3.org/2000/svg">
<path d="M14.8787 1.21907C15.4273 0.98226 16.0497 0.982287 16.5983 1.21907C16.8188 1.31425 17.0042 1.45174 17.1834 1.60888C17.3587 1.76253 17.559 1.96326 17.7978 2.20215C18.0367 2.44103 18.2375 2.64132 18.3911 2.81657C18.5483 2.99581 18.6857 3.1812 18.7809 3.40169C19.0177 3.95029 19.0177 4.57266 18.7809 5.12125C18.6857 5.34168 18.5482 5.52717 18.3911 5.70638C18.2375 5.88153 18.0366 6.08127 17.7978 6.31998L13.6133 10.5054C12.6131 11.5055 12.0122 12.1171 11.2459 12.4797C10.4797 12.8421 9.62597 12.9186 8.21858 13.0575L7.56102 13.1217C7.37486 13.14 7.19037 13.0742 7.0581 12.9419C6.92582 12.8096 6.85997 12.6251 6.87824 12.439L6.94254 11.7814C7.0814 10.374 7.15791 9.52027 7.52033 8.75407C7.88284 7.98778 8.49444 7.38689 9.49462 6.38672L13.68 2.20215C13.9187 1.96343 14.1185 1.76246 14.2936 1.60888C14.4728 1.45176 14.6583 1.31426 14.8787 1.21907ZM16.1027 2.36653C15.8703 2.26634 15.6067 2.26626 15.3743 2.36653C15.3238 2.38836 15.2512 2.43206 15.118 2.54883C14.9808 2.66909 14.8142 2.83556 14.5638 3.08593L10.3792 7.2705C9.31763 8.3321 8.89827 8.76305 8.64989 9.28792C8.40726 9.80081 8.33718 10.3827 8.1966 11.8026C9.617 11.6619 10.1991 11.5928 10.7121 11.3501C11.2369 11.1017 11.6679 10.6824 12.7295 9.62077L16.9141 5.4362C17.1644 5.18582 17.3309 5.01917 17.4512 4.882C17.5679 4.74881 17.6116 4.67622 17.6335 4.62565C17.7337 4.39331 17.7336 4.12965 17.6335 3.8973C17.6116 3.84675 17.5678 3.77401 17.4512 3.64095C17.3309 3.50373 17.1646 3.33644 16.9141 3.08593C16.6635 2.83543 16.4963 2.66913 16.359 2.54883C16.226 2.43219 16.1532 2.38835 16.1027 2.36653Z" fill="#131313"/>
<path d="M11.875 16.875C11.875 16.4148 11.5019 16.0417 11.0416 16.0417H3.12496C1.97437 16.0417 1.04163 15.1089 1.04163 13.9583C1.04163 12.8077 1.97437 11.875 3.12496 11.875H4.99996C5.34514 11.875 5.62496 12.1548 5.62496 12.5C5.62496 12.8452 5.34514 13.125 4.99996 13.125H3.12496C2.66472 13.125 2.29163 13.4981 2.29163 13.9583C2.29163 14.4186 2.66472 14.7917 3.12496 14.7917H11.0416C12.1922 14.7917 13.125 15.7244 13.125 16.875C13.125 18.0256 12.1922 18.9583 11.0416 18.9583H9.16663C8.82145 18.9583 8.54163 18.6785 8.54163 18.3333C8.54163 17.9882 8.82145 17.7083 9.16663 17.7083H11.0416C11.5019 17.7083 11.875 17.3352 11.875 16.875Z" fill="#131313"/>
</svg>
