<svg width="20" height="20" viewBox="0 0 20 20" fill="none" xmlns="http://www.w3.org/2000/svg">
<path d="M10.7633 10.926V9.53682C10.7633 8.8737 10.7626 8.42298 10.7275 8.07849C10.6935 7.74471 10.6326 7.58019 10.5566 7.46651C10.4671 7.33261 10.352 7.21745 10.2181 7.12797C10.1187 7.06161 9.97998 7.00627 9.72412 6.97091C9.45805 6.93415 9.11059 6.92427 8.6084 6.92208C8.46546 6.92146 8.3125 6.92127 8.14779 6.92127C7.48466 6.92127 7.03394 6.92203 6.68945 6.95707C6.35567 6.99106 6.19116 7.05202 6.07747 7.12797C5.94351 7.21748 5.82844 7.33255 5.73893 7.46651C5.66298 7.5802 5.60202 7.74471 5.56803 8.07849C5.53299 8.42298 5.53223 8.8737 5.53223 9.53682V15.0927C5.53223 15.7558 5.53299 16.2065 5.56803 16.551C5.60202 16.8848 5.66299 17.0493 5.73893 17.163C5.82844 17.2969 5.94352 17.412 6.07747 17.5015C6.19116 17.5775 6.35565 17.6384 6.68945 17.6724C7.03394 17.7074 7.48466 17.7082 8.14779 17.7082C8.81101 17.7082 9.2616 17.7075 9.60612 17.6724C9.93993 17.6384 10.1044 17.5774 10.2181 17.5015C10.352 17.412 10.4671 17.2969 10.5566 17.163C10.6415 17.036 10.7069 16.8477 10.7381 16.4346C10.7641 16.0904 11.0645 15.8324 11.4087 15.8584C11.7526 15.8846 12.0107 16.1842 11.9849 16.5282C11.9477 17.0208 11.8585 17.465 11.5967 17.8571C11.416 18.1275 11.1835 18.36 10.9131 18.5407C10.5597 18.7768 10.1652 18.8719 9.73226 18.9159C9.30985 18.9588 8.78484 18.9582 8.14779 18.9582C7.51066 18.9582 6.98574 18.9589 6.56331 18.9159C6.13048 18.8719 5.7366 18.7768 5.3833 18.5407C5.11285 18.36 4.88042 18.1276 4.69971 17.8571C4.46372 17.5038 4.36857 17.1099 4.32454 16.6771C4.28158 16.2547 4.28223 15.7298 4.28223 15.0927V9.53682C4.28223 8.8997 4.28157 8.37478 4.32454 7.95235C4.36858 7.51953 4.4637 7.12563 4.69971 6.77234C4.88042 6.50189 5.11285 6.26945 5.3833 6.08875C5.7366 5.85274 6.13049 5.75762 6.56331 5.71358C6.98574 5.67061 7.51066 5.67127 8.14779 5.67127C8.31173 5.67127 8.46721 5.67144 8.61328 5.67208C9.10978 5.67424 9.53633 5.68342 9.89583 5.73311C10.2652 5.78421 10.6046 5.88262 10.9131 6.08875C11.1835 6.26944 11.416 6.50194 11.5967 6.77234C11.8326 7.12559 11.9278 7.5196 11.9718 7.95235C12.0148 8.37478 12.0133 8.8997 12.0133 9.53682V10.926C12.0133 11.2711 11.7335 11.551 11.3883 11.551C11.0434 11.5508 10.7634 11.271 10.7633 10.926Z" fill="#838383"/>
<path d="M9.23616 9.07395V10.4631C9.23616 11.1262 9.23693 11.577 9.27197 11.9214C9.30596 12.2552 9.36691 12.4197 9.44287 12.5334C9.53237 12.6673 9.6475 12.7825 9.78141 12.872C9.88084 12.9383 10.0195 12.9937 10.2754 13.029C10.5415 13.0658 10.8889 13.0757 11.3911 13.0779C11.5341 13.0785 11.687 13.0787 11.8517 13.0787C12.5148 13.0787 12.9656 13.0779 13.3101 13.0429C13.6438 13.0089 13.8084 12.9479 13.922 12.872C14.056 12.7825 14.1711 12.6674 14.2606 12.5334C14.3365 12.4197 14.3975 12.2552 14.4315 11.9214C14.4665 11.577 14.4673 11.1262 14.4673 10.4631V4.90729C14.4673 4.24411 14.4665 3.79346 14.4315 3.44895C14.3975 3.11517 14.3365 2.95067 14.2606 2.83697C14.1711 2.70302 14.056 2.58794 13.922 2.49843C13.8084 2.42247 13.6439 2.36153 13.3101 2.32753C12.9656 2.29249 12.5148 2.29173 11.8517 2.29173C11.1885 2.29173 10.7379 2.29249 10.3934 2.32753C10.0596 2.3615 9.89513 2.42252 9.78141 2.49843C9.64748 2.58792 9.53237 2.70305 9.44287 2.83697C9.35802 2.96396 9.29262 3.15228 9.26139 3.56533C9.23539 3.90952 8.93502 4.1675 8.59082 4.1415C8.24687 4.11537 7.98885 3.8157 8.01465 3.47174C8.05186 2.97914 8.14098 2.53493 8.40283 2.1428C8.5835 1.87241 8.81606 1.6399 9.08643 1.45921C9.43978 1.22311 9.83434 1.12808 10.2673 1.08404C10.6897 1.0411 11.2147 1.04173 11.8517 1.04173C12.4888 1.04173 13.0138 1.04107 13.4362 1.08404C13.869 1.12808 14.2629 1.22318 14.6162 1.45921C14.8867 1.63991 15.1191 1.87235 15.2998 2.1428C15.5358 2.49609 15.6309 2.89 15.675 3.32281C15.7179 3.74525 15.7173 4.27014 15.7173 4.90729V10.4631C15.7173 11.1002 15.7179 11.6252 15.675 12.0476C15.6309 12.4804 15.5358 12.8743 15.2998 13.2276C15.1191 13.498 14.8867 13.7305 14.6162 13.9112C14.2629 14.1472 13.869 14.2423 13.4362 14.2864C13.0138 14.3293 12.4888 14.3287 11.8517 14.3287C11.6878 14.3287 11.5323 14.3285 11.3862 14.3279C10.8897 14.3257 10.4632 14.3165 10.1037 14.2668C9.73428 14.2157 9.39491 14.1173 9.08643 13.9112C8.81604 13.7305 8.58351 13.498 8.40283 13.2276C8.16692 12.8743 8.07169 12.4803 8.02767 12.0476C7.9847 11.6252 7.98616 11.1002 7.98616 10.4631V9.07395C7.98621 8.72882 8.26602 8.44895 8.61116 8.44895C8.95615 8.44915 9.23612 8.72894 9.23616 9.07395Z" fill="#838383"/>
</svg>
