<svg width="20" height="20" viewBox="0 0 20 20" fill="none" xmlns="http://www.w3.org/2000/svg">
<path d="M15.6456 7.73274C15.6455 4.74708 13.138 2.29166 10.0002 2.29166C6.86252 2.29166 4.35494 4.74708 4.35489 7.73274C4.35481 8.60988 4.31005 9.60106 3.66723 10.52L3.66479 10.5225C3.55844 10.6726 3.44187 10.8259 3.33845 10.9635C3.23141 11.106 3.13307 11.2397 3.04548 11.3729C2.86816 11.6426 2.76009 11.8732 2.72566 12.0923C2.61492 12.7977 3.07628 13.373 3.92683 13.715C7.49618 15.1501 12.5043 15.1501 16.0736 13.715C16.9242 13.373 17.3856 12.7977 17.2748 12.0923C17.2404 11.8732 17.1323 11.6426 16.955 11.3729C16.8674 11.2397 16.7691 11.106 16.662 10.9635C16.5586 10.8259 16.442 10.6726 16.3357 10.5225L16.3332 10.52C15.6904 9.60106 15.6457 8.60988 15.6456 7.73274ZM16.8956 7.73274C16.8957 8.58934 16.9556 9.22792 17.3578 9.80305H17.357C17.4496 9.93365 17.5489 10.0636 17.6614 10.2132C17.7708 10.3588 17.8895 10.5181 17.9999 10.686C18.2188 11.0189 18.4348 11.424 18.5094 11.8978C18.7529 13.4473 17.6293 14.4366 16.54 14.8747C12.6714 16.4301 7.3291 16.4301 3.46052 14.8747C2.37114 14.4366 1.24759 13.4473 1.49112 11.8978C1.56563 11.424 1.78169 11.0189 2.00056 10.686C2.111 10.5181 2.2297 10.3588 2.3391 10.2132C2.45142 10.0637 2.55016 9.93353 2.64265 9.80305C3.04489 9.22792 3.10482 8.58934 3.10489 7.73274C3.10494 4.01797 6.21156 1.04166 10.0002 1.04166C13.7889 1.04166 16.8955 4.01797 16.8956 7.73274Z" fill="#838383"/>
<path d="M12.1155 17.0076C12.3874 16.7952 12.7802 16.8432 12.9927 17.1151C13.2052 17.387 13.1571 17.7798 12.8853 17.9923C12.1095 18.5984 11.097 18.9583 10.0004 18.9583C8.90376 18.9583 7.89132 18.5984 7.11546 17.9923C6.84362 17.7798 6.79561 17.387 7.00803 17.1151C7.22056 16.8432 7.61336 16.7952 7.88531 17.0076C8.43632 17.438 9.17623 17.7083 10.0004 17.7083C10.8245 17.7083 11.5644 17.438 12.1155 17.0076Z" fill="#838383"/>
</svg>
