<svg width="20" height="20" viewBox="0 0 20 20" fill="none" xmlns="http://www.w3.org/2000/svg">
<path d="M10 1.04199C14.9476 1.04199 18.958 5.05245 18.958 10C18.958 14.9476 14.9476 18.958 10 18.958C5.05245 18.958 1.04199 14.9476 1.04199 10C1.04199 5.05245 5.05245 1.04199 10 1.04199ZM10 5.83301C9.53976 5.83301 9.16699 6.20675 9.16699 6.66699V9.16699H6.66699C6.20675 9.16699 5.83301 9.53976 5.83301 10C5.83301 10.4602 6.20675 10.833 6.66699 10.833H9.16699L9.16699 13.333C9.16699 13.7932 9.53976 14.167 10 14.167C10.4602 14.167 10.833 13.7932 10.833 13.333L10.833 10.833L13.333 10.833C13.7932 10.833 14.167 10.4602 14.167 10C14.167 9.53976 13.7932 9.16699 13.333 9.16699L10.833 9.16699V6.66699C10.833 6.20675 10.4602 5.83301 10 5.83301Z" fill="white"/>
</svg>
