<svg width="20" height="20" viewBox="0 0 20 20" fill="none" xmlns="http://www.w3.org/2000/svg">
<path d="M13.9811 12.8024C14.6267 12.5888 15.3662 12.7388 15.8798 13.2524L18.4144 15.7871C19.1399 16.5125 19.1399 17.6887 18.4144 18.4142C17.6889 19.1397 16.5127 19.1397 15.7872 18.4142L13.2526 15.8796C12.739 15.366 12.589 14.6265 12.8026 13.9809L11.0776 12.256L12.2561 11.0775L13.9811 12.8024Z" fill="#CCCCCC"/>
<path fill-rule="evenodd" clip-rule="evenodd" d="M0.833496 7.49998C0.833496 3.81808 3.81826 0.833313 7.50016 0.833313C11.1821 0.833313 14.1668 3.81808 14.1668 7.49998C14.1668 11.1819 11.1821 14.1666 7.50016 14.1666C3.81826 14.1666 0.833496 11.1819 0.833496 7.49998ZM7.50016 2.49998C4.73874 2.49998 2.50016 4.73856 2.50016 7.49998C2.50016 10.2614 4.73874 12.5 7.50016 12.5C10.2616 12.5 12.5002 10.2614 12.5002 7.49998C12.5002 4.73856 10.2616 2.49998 7.50016 2.49998Z" fill="#CCCCCC"/>
</svg>
