<svg width="20" height="20" viewBox="0 0 20 20" fill="none" xmlns="http://www.w3.org/2000/svg">
<path d="M12.2913 9.99999C12.2913 8.73434 11.2653 7.70833 9.99967 7.70833C8.73402 7.70833 7.70801 8.73434 7.70801 9.99999C7.70801 11.2656 8.73402 12.2917 9.99967 12.2917C11.2653 12.2917 12.2913 11.2656 12.2913 9.99999ZM13.5413 9.99999C13.5413 11.956 11.9557 13.5417 9.99967 13.5417C8.04367 13.5417 6.45801 11.956 6.45801 9.99999C6.45801 8.04399 8.04367 6.45833 9.99967 6.45833C11.9557 6.45833 13.5413 8.04399 13.5413 9.99999Z" fill="#838383"/>
<path d="M17.7082 10C17.7082 9.80247 17.6585 9.59021 17.512 9.26839C17.3598 8.93391 17.1266 8.52989 16.7845 7.94027L15.1813 5.17741C14.8407 4.59031 14.6075 4.18882 14.3936 3.8916C14.1877 3.60561 14.0278 3.45716 13.8564 3.35856C13.685 3.25994 13.4762 3.19617 13.1248 3.16162C12.7597 3.12574 12.2943 3.125 11.6144 3.125L8.38525 3.125C7.70536 3.125 7.23996 3.12574 6.87484 3.16162C6.52344 3.19617 6.31464 3.25994 6.14323 3.35856C5.97189 3.45716 5.812 3.60561 5.60612 3.8916C5.39219 4.18882 5.15897 4.59031 4.81836 5.17741L3.21517 7.94027C2.8731 8.52989 2.63987 8.93391 2.48763 9.26839C2.34117 9.59021 2.2915 9.80247 2.2915 10C2.2915 10.1975 2.34117 10.4098 2.48763 10.7316C2.63987 11.0661 2.8731 11.4701 3.21517 12.0597L4.81836 14.8226C5.15897 15.4097 5.39219 15.8112 5.60612 16.1084C5.812 16.3944 5.97189 16.5428 6.14323 16.6414C6.31464 16.7401 6.52344 16.8038 6.87484 16.8384C7.23996 16.8743 7.70536 16.875 8.38525 16.875H11.6144C12.2943 16.875 12.7597 16.8743 13.1248 16.8384C13.4762 16.8038 13.685 16.7401 13.8564 16.6414C14.0278 16.5428 14.1877 16.3944 14.3936 16.1084C14.6075 15.8112 14.8407 15.4097 15.1813 14.8226L16.7845 12.0597C17.1266 11.4701 17.3598 11.0661 17.512 10.7316C17.6585 10.4098 17.7082 10.1975 17.7082 10ZM18.9582 10C18.9582 10.4386 18.8392 10.8338 18.6497 11.25C18.466 11.6536 18.1958 12.1188 17.866 12.6872L16.2629 15.45C15.9343 16.0163 15.6658 16.4805 15.4076 16.8392C15.1413 17.2089 14.8586 17.5075 14.4798 17.7254C14.101 17.9433 13.7007 18.0381 13.2469 18.0827C12.8067 18.1259 12.2701 18.125 11.6144 18.125H8.38525C7.72958 18.125 7.19301 18.1259 6.75277 18.0827C6.29894 18.0381 5.89865 17.9433 5.51986 17.7254C5.14106 17.5075 4.85832 17.2089 4.59212 16.8392C4.33391 16.4805 4.06534 16.0163 3.73682 15.45L2.13363 12.6872C1.80387 12.1188 1.53364 11.6536 1.34993 11.25C1.16052 10.8338 1.0415 10.4386 1.0415 10C1.0415 9.56144 1.16051 9.16617 1.34993 8.75C1.53364 8.34645 1.80387 7.88122 2.13363 7.31283L3.73682 4.54997C4.06534 3.98371 4.33391 3.51949 4.59212 3.16081C4.85833 2.79107 5.14105 2.49252 5.51986 2.27458C5.89865 2.05667 6.29894 1.96192 6.75277 1.91732C7.19301 1.87406 7.72958 1.875 8.38525 1.875L11.6144 1.875C12.2701 1.875 12.8067 1.87406 13.2469 1.91732C13.7007 1.96192 14.101 2.05667 14.4798 2.27458C14.8586 2.49252 15.1413 2.79107 15.4076 3.16081C15.6658 3.51949 15.9343 3.98371 16.2629 4.54997L17.866 7.31283C18.1958 7.88122 18.466 8.34645 18.6497 8.75C18.8392 9.16617 18.9582 9.56144 18.9582 10Z" fill="#838383"/>
</svg>
