<svg width="20" height="20" viewBox="0 0 20 20" fill="none" xmlns="http://www.w3.org/2000/svg">
<path d="M17.7082 10C17.7082 9.69113 17.6275 9.37026 17.416 8.91357C17.1988 8.44463 16.8681 7.88181 16.3955 7.08008L15.904 6.24675C15.4048 5.39993 15.0533 4.80509 14.7264 4.36117C14.4086 3.92959 14.1411 3.67896 13.8304 3.50667C13.5179 3.33343 13.1502 3.23252 12.5877 3.17953C12.0125 3.12536 11.2851 3.125 10.2586 3.125H9.74105C8.71455 3.125 7.98715 3.12536 7.41195 3.17953C6.84944 3.23252 6.48178 3.33343 6.16927 3.50667C5.85858 3.67896 5.59109 3.92959 5.27327 4.36117C4.94638 4.80509 4.5949 5.39993 4.0957 6.24675L3.60417 7.08008C3.13155 7.88181 2.80084 8.44463 2.58366 8.91357C2.37217 9.37026 2.2915 9.69113 2.2915 10C2.2915 10.3089 2.37217 10.6297 2.58366 11.0864C2.80084 11.5554 3.13155 12.1182 3.60417 12.9199L4.0957 13.7533C4.5949 14.6001 4.94638 15.1949 5.27327 15.6388C5.59109 16.0704 5.85858 16.321 6.16927 16.4933C6.48178 16.6666 6.84944 16.7675 7.41195 16.8205C7.98715 16.8746 8.71455 16.875 9.74105 16.875H10.2586C11.2851 16.875 12.0125 16.8746 12.5877 16.8205C13.1502 16.7675 13.5179 16.6666 13.8304 16.4933C14.1411 16.321 14.4086 16.0704 14.7264 15.6388C15.0533 15.1949 15.4048 14.6001 15.904 13.7533L16.3955 12.9199C16.8681 12.1182 17.1988 11.5554 17.416 11.0864C17.6275 10.6297 17.7082 10.3089 17.7082 10ZM18.9582 10C18.9582 10.5549 18.8054 11.0616 18.5505 11.6121C18.3012 12.1503 17.9323 12.7742 17.4722 13.5547L16.9806 14.388C16.4941 15.2133 16.1066 15.873 15.7331 16.3802C15.3504 16.8998 14.9563 17.2981 14.4367 17.5863C13.9191 17.8733 13.3643 18.0027 12.7049 18.0648C12.0577 18.1257 11.2618 18.125 10.2586 18.125H9.74105C8.73783 18.125 7.942 18.1257 7.29476 18.0648C6.63535 18.0027 6.08057 17.8733 5.56299 17.5863C5.04336 17.2981 4.64923 16.8998 4.2666 16.3802C3.89308 15.873 3.50553 15.2133 3.01904 14.388L2.52751 13.5547C2.06741 12.7742 1.69845 12.1503 1.44922 11.6121C1.19427 11.0616 1.0415 10.5549 1.0415 10C1.0415 9.44513 1.19427 8.93836 1.44922 8.38786C1.69845 7.84973 2.06741 7.2258 2.52751 6.44531L3.01904 5.61198C3.50553 4.78673 3.89308 4.12702 4.2666 3.61979C4.64923 3.1002 5.04336 2.70188 5.56299 2.41374C6.08057 2.12674 6.63535 1.99734 7.29476 1.93522C7.942 1.87428 8.73783 1.875 9.74105 1.875H10.2586C11.2618 1.875 12.0577 1.87428 12.7049 1.93522C13.3643 1.99734 13.9191 2.12674 14.4367 2.41374C14.9563 2.70188 15.3504 3.1002 15.7331 3.61979C16.1066 4.12702 16.4941 4.78673 16.9806 5.61198L17.4722 6.44531C17.9323 7.2258 18.3012 7.84973 18.5505 8.38786C18.8054 8.93836 18.9582 9.44513 18.9582 10Z" fill="#838383"/>
<path d="M10.0008 12.5C10.4611 12.5 10.8341 12.8731 10.8341 13.3333C10.8341 13.7936 10.4611 14.1667 10.0008 14.1667H9.99349C9.53325 14.1667 9.16016 13.7936 9.16016 13.3333C9.16016 12.8731 9.53325 12.5 9.99349 12.5H10.0008Z" fill="#838383"/>
<path d="M10.6182 6.66665L10.6182 10.8333C10.6182 11.1785 10.3383 11.4583 9.99316 11.4583C9.64799 11.4583 9.36816 11.1785 9.36816 10.8333L9.36816 6.66665C9.36816 6.32147 9.64799 6.04165 9.99316 6.04165C10.3383 6.04165 10.6182 6.32147 10.6182 6.66665Z" fill="#838383"/>
</svg>
