<svg width="24" height="24" viewBox="0 0 24 24" fill="none" xmlns="http://www.w3.org/2000/svg">
    <path d="M18.25 19C18.25 15.5482 15.4518 12.75 12 12.75C8.54822 12.75 5.75 15.5482 5.75 19V22H4.25V19C4.25 15.9112 6.05736 13.2453 8.67188 12C6.05736 10.7547 4.25 8.08879 4.25 5V2H5.75V5C5.75 8.45178 8.54822 11.25 12 11.25C15.4518 11.25 18.25 8.45178 18.25 5V2H19.75V5C19.75 8.0891 17.9421 10.7549 15.3271 12C17.9421 13.2451 19.75 15.9109 19.75 19V22H18.25V19Z" fill="#FF7B2F"/>
    <path d="M20 21.25C20.4142 21.25 20.75 21.5858 20.75 22C20.75 22.4142 20.4142 22.75 20 22.75H4C3.58579 22.75 3.25 22.4142 3.25 22C3.25 21.5858 3.58579 21.25 4 21.25H20ZM20 1.25C20.4142 1.25 20.75 1.58579 20.75 2C20.75 2.41421 20.4142 2.75 20 2.75H4C3.58579 2.75 3.25 2.41421 3.25 2C3.25 1.58579 3.58579 1.25 4 1.25H20Z" fill="#FF7B2F"/>
</svg>
